<svg id="visual" viewBox="0 0 900 600" width="900" height="600" xmlns="http://www.w3.org/2000/svg" xmlns:xlink="http://www.w3.org/1999/xlink" version="1.1"><path d="M0 61L82 61L82 79L164 79L164 121L245 121L245 85L327 85L327 133L409 133L409 43L491 43L491 61L573 61L573 79L655 79L655 91L736 91L736 91L818 91L818 85L900 85L900 49L900 0L900 0L818 0L818 0L736 0L736 0L655 0L655 0L573 0L573 0L491 0L491 0L409 0L409 0L327 0L327 0L245 0L245 0L164 0L164 0L82 0L82 0L0 0Z" fill="#9ca3af"></path><path d="M0 217L82 217L82 241L164 241L164 175L245 175L245 205L327 205L327 217L409 217L409 145L491 145L491 169L573 169L573 205L655 205L655 187L736 187L736 211L818 211L818 163L900 163L900 145L900 47L900 83L818 83L818 89L736 89L736 89L655 89L655 77L573 77L573 59L491 59L491 41L409 41L409 131L327 131L327 83L245 83L245 119L164 119L164 77L82 77L82 59L0 59Z" fill="#828996"></path><path d="M0 355L82 355L82 385L164 385L164 265L245 265L245 385L327 385L327 343L409 343L409 319L491 319L491 379L573 379L573 403L655 403L655 397L736 397L736 409L818 409L818 301L900 301L900 241L900 143L900 161L818 161L818 209L736 209L736 185L655 185L655 203L573 203L573 167L491 167L491 143L409 143L409 215L327 215L327 203L245 203L245 173L164 173L164 239L82 239L82 215L0 215Z" fill="#68707e"></path><path d="M0 403L82 403L82 445L164 445L164 313L245 313L245 481L327 481L327 379L409 379L409 373L491 373L491 475L573 475L573 499L655 499L655 487L736 487L736 451L818 451L818 391L900 391L900 343L900 239L900 299L818 299L818 407L736 407L736 395L655 395L655 401L573 401L573 377L491 377L491 317L409 317L409 341L327 341L327 383L245 383L245 263L164 263L164 383L82 383L82 353L0 353Z" fill="#4f5867"></path><path d="M0 601L82 601L82 601L164 601L164 601L245 601L245 601L327 601L327 601L409 601L409 601L491 601L491 601L573 601L573 601L655 601L655 601L736 601L736 601L818 601L818 601L900 601L900 601L900 341L900 389L818 389L818 449L736 449L736 485L655 485L655 497L573 497L573 473L491 473L491 371L409 371L409 377L327 377L327 479L245 479L245 311L164 311L164 443L82 443L82 401L0 401Z" fill="#374151"></path></svg>